<?xml version="1.0" standalone="no"?>
<!DOCTYPE svg PUBLIC "-//W3C//DTD SVG 20010904//EN"
 "http://www.w3.org/TR/2001/REC-SVG-20010904/DTD/svg10.dtd">
<svg version="1.0" xmlns="http://www.w3.org/2000/svg"
 width="412.000000pt" height="256.000000pt" viewBox="0 0 412.000000 256.000000"
 preserveAspectRatio="xMidYMid meet">
<metadata>
Created by potrace 1.11, written by Peter Selinger 2001-2013
</metadata>
<g transform="translate(0.000000,256.000000) scale(0.100000,-0.100000)"
fill="#000000" stroke="none">
<path d="M210 2435 c-8 -9 -10 -29 -7 -50 3 -19 2 -35 -2 -35 -8 0 -14 -43
-27 -180 -2 -30 -9 -98 -14 -150 -30 -288 -36 -535 -19 -795 5 -82 11 -193 14
-245 14 -240 44 -345 92 -325 15 6 16 8 3 13 -35 12 -55 90 -71 277 -13 157
-18 896 -6 950 4 17 14 107 23 200 9 94 20 175 25 181 17 21 28 138 14 157
-11 16 -14 16 -25 2z"/>
<path d="M597 2033 c-16 -28 -26 -451 -12 -538 23 -144 31 -177 59 -240 47
-101 113 -155 191 -155 27 0 40 8 64 37 17 21 31 43 31 51 0 8 10 5 30 -9 61
-46 172 -14 216 61 22 36 25 36 42 9 30 -48 141 -64 199 -29 18 10 49 41 69
69 36 48 38 49 61 34 33 -22 123 -22 157 0 14 10 39 35 54 56 28 38 28 38 51
20 49 -40 157 -14 227 56 24 24 40 33 47 27 38 -30 121 -14 199 38 40 27 56
31 115 31 102 0 679 -91 828 -131 182 -49 397 -135 548 -220 97 -54 125 -75
170 -128 39 -48 35 -73 -21 -124 -65 -58 -165 -91 -334 -108 -111 -12 -401
-31 -475 -31 -29 0 -177 -9 -330 -20 -153 -11 -285 -20 -293 -20 -8 -1 -22 -3
-30 -6 -8 -2 -51 -6 -95 -8 -44 -2 -98 -7 -120 -11 -22 -3 -89 -14 -150 -24
-152 -25 -165 -28 -295 -56 -196 -43 -526 -127 -575 -147 -16 -6 -34 -12 -40
-13 -65 -12 -364 -107 -485 -155 -58 -22 -118 -45 -135 -50 -16 -5 -39 -13
-50 -18 -11 -6 -72 -31 -135 -56 -63 -25 -124 -49 -135 -54 -11 -5 -60 -26
-109 -47 -54 -23 -83 -40 -72 -42 10 -2 28 1 40 7 26 13 212 86 246 96 14 4
43 16 65 26 82 37 395 153 530 196 77 25 149 49 160 53 21 9 28 11 140 40 39
10 126 34 195 53 146 41 294 77 435 107 55 12 109 24 120 26 11 3 38 7 60 10
22 2 51 7 65 10 14 3 39 8 55 11 17 2 41 6 55 9 14 2 66 7 115 10 50 2 124 9
166 15 115 15 362 29 744 43 104 4 191 9 195 11 3 2 41 6 85 10 127 10 203 24
275 49 143 50 205 114 179 185 -54 141 -511 353 -939 436 -152 29 -519 83
-625 91 -46 4 -74 11 -82 21 -15 20 -40 3 -45 -30 -3 -24 -48 -49 -123 -69
-64 -17 -81 -5 -77 56 2 25 -1 46 -6 46 -11 0 -32 -45 -32 -70 0 -26 -64 -88
-114 -111 -57 -26 -92 -24 -122 6 -23 23 -25 31 -18 68 11 66 10 82 -6 82 -11
0 -18 -21 -27 -77 -8 -56 -19 -87 -38 -112 -44 -57 -121 -73 -170 -34 -26 21
-27 24 -21 87 4 36 9 83 13 104 4 30 2 37 -10 37 -9 0 -22 -10 -29 -22 -13
-24 -14 -35 -16 -139 -2 -55 -7 -73 -33 -112 -52 -79 -110 -102 -181 -73 -64
27 -74 61 -53 175 9 45 13 86 10 91 -20 32 -42 -23 -44 -110 -4 -108 -62 -189
-150 -206 -38 -8 -88 11 -96 37 -4 10 -1 63 6 118 12 97 8 151 -11 151 -21 0
-30 -43 -33 -162 -5 -133 -18 -177 -59 -199 -36 -19 -90 4 -142 62 -52 58 -91
165 -103 284 -13 129 -8 434 9 539 3 19 -16 34 -25 19z"/>
</g>
</svg>
