<?xml version="1.0" encoding="utf-8"?>
<!-- Generator: Adobe Illustrator 22.0.1, SVG Export Plug-In . SVG Version: 6.00 Build 0)  -->
<svg version="1.1" id="Layer_1" xmlns="http://www.w3.org/2000/svg" xmlns:xlink="http://www.w3.org/1999/xlink" x="0px" y="0px"
	 viewBox="0 0 115.8 104.4" style="enable-background:new 0 0 115.8 104.4;" xml:space="preserve">
<style type="text/css">
	.st0{fill:#FFFFFF;}
</style>
<g>
	<path d="M57.5,55.8c-18,5.8-35.3,11.4-52.4,17c0.5-0.3,1.2-1,2.1-1.3c9.7-3.4,19.5-6.8,29.3-10c6.3-2.1,12.7-3.9,19.1-5.7
		c1.4-0.4,2.1-1.1,2.1-2.6c0-1.9,0.1-3.8,0.2-6c-4.4,0.5-8.4,1.1-12.4,1.5c-2.8,0.3-5.6,0.4-8.5,0.3c-1.1,0-2.2-0.8-3.2-1.2
		c0-0.3,0-0.6-0.1-0.9c2.1-1.1,4.1-2.4,6.3-3.2c5.1-2,10.3-4,15.5-5.6c2.2-0.7,3.3-1.6,3-3.9c-0.1-0.8,0-1.6,0-2.7
		c-14.4,2-28.3,6.2-42.7,6.4c-0.1-0.4-0.1-0.7-0.2-1.1c2.5-0.7,5-1.4,7.6-2.2c0.1,0.2,0.1,0.4,0.2,0.7c-0.7,0.2-1.4,0.4-2.1,0.6
		c-0.7,0.2-1.4,0.4-2,1.1c0.9,0,1.9,0,2.8-0.2c11.6-2.1,23.2-4.3,34.9-6.3c1.6-0.3,1.8-1,1.9-2.3c0.4-5.9,0.9-11.8,1.4-17.7
		c0.1-0.6,0.3-1.2,0.9-1.7c-0.5,6.9-1,13.8-1.6,20.9c14.8-2.4,29.3-5.4,44-5.9c0.1,0.3,0.1,0.7,0.2,1c-3.1,1-6.1,2.1-9.2,3
		c-11.1,3.2-22.2,6.3-33.4,9.3c-1.5,0.4-2,1.2-1.9,2.6c0.1,1.9,0,3.8,0,5.9c16.8-1.9,33.4-4.1,50.2-3.9c0.1,0.4,0.1,0.7,0.2,1.1
		c-2.8,0.8-5.5,1.8-8.4,2.5c-13.2,3.3-26.5,6.5-39.8,9.6c-2.3,0.5-3.2,1.5-3.3,4c-0.6,9.6-1.5,19.3-2.2,28.9
		c-0.1,1.6,0.1,3.3,0.1,4.9c0,1.2-0.2,2.4-0.3,3.6c-0.3,0-0.7,0-1,0c-0.1-1.3-0.3-2.7-0.2-4c0.5-6.6,1.2-13.3,1.8-19.9
		C56.9,67.2,57.2,61.9,57.5,55.8z M58.9,54.5c15.3-3.7,30.6-7.4,45.9-11.1c0-0.2,0-0.5-0.1-0.7c-1.3,0-2.6-0.1-3.9,0
		c-7.1,0.6-14.3,1.1-21.4,1.8c-6.1,0.6-12.2,1.3-18.3,2.1c-0.8,0.1-2.1,0.9-2.1,1.4C58.8,50.2,58.9,52.4,58.9,54.5z M59.5,36.3
		c13.4-3.7,26.3-7.2,39.2-10.7c-0.1-0.3-0.1-0.5-0.2-0.8C93.3,25.5,88,26.2,82.8,27c-7,1.1-13.9,2.3-20.9,3.5
		c-0.8,0.1-1.9,0.7-2,1.3C59.5,33.2,59.6,34.7,59.5,36.3z M35.4,46.5c0.1,0.4,0.2,0.8,0.3,1.2c1,0.2,2.1,0.7,3.1,0.6
		c6-0.6,11.9-1.3,17.8-2.1c0.5-0.1,1.4-0.8,1.4-1.2c0.2-2.2,0.1-4.4,0.1-7C50.4,40.8,42.9,43.6,35.4,46.5z"/>
	<path class="st0" d="M58.9,54.5c0-2.1-0.2-4.3,0.1-6.4c0.1-0.6,1.3-1.3,2.1-1.4c6.1-0.8,12.2-1.5,18.3-2.1
		c7.1-0.7,14.3-1.2,21.4-1.8c1.3-0.1,2.6,0,3.9,0c0,0.2,0,0.5,0.1,0.7C89.6,47.1,74.3,50.8,58.9,54.5z"/>
	<path class="st0" d="M59.5,36.3c0.1-1.6,0-3.1,0.3-4.5c0.2-0.6,1.3-1.2,2-1.3c7-1.2,13.9-2.4,20.9-3.5c5.2-0.8,10.5-1.5,15.8-2.2
		c0.1,0.3,0.1,0.5,0.2,0.8C85.8,29.1,72.9,32.7,59.5,36.3z"/>
	<path class="st0" d="M35.4,46.5c7.5-2.8,14.9-5.7,22.7-8.6c0,2.6,0.1,4.9-0.1,7c0,0.5-0.9,1.2-1.4,1.2c-5.9,0.8-11.9,1.5-17.8,2.1
		c-1,0.1-2-0.4-3.1-0.6C35.6,47.3,35.5,46.9,35.4,46.5z"/>
</g>
</svg>
